<?xml version="1.0" encoding="UTF-8"?>
<svg width="1200" height="600" xmlns="http://www.w3.org/2000/svg">
<defs>
<style>
.title { font: bold 24px sans-serif; fill: #2c3e50; }
.axis-label { font: 14px sans-serif; fill: #34495e; }
.tick-label { font: 12px sans-serif; fill: #7f8c8d; }
.legend { font: 14px sans-serif; }
.grid-line { stroke: #ecf0f1; stroke-width: 1; }
</style>
</defs>
<rect width="1200" height="600" fill="white"/><text x="600" y="40" class="title" text-anchor="middle">Balios Performance: Lower is Better</text><line x1="100" y1="80.0" x2="1150" y2="80.0" class="grid-line"/><text x="90" y="85.0" class="tick-label" text-anchor="end">297</text><line x1="100" y1="164.0" x2="1150" y2="164.0" class="grid-line"/><text x="90" y="169.0" class="tick-label" text-anchor="end">237</text><line x1="100" y1="248.0" x2="1150" y2="248.0" class="grid-line"/><text x="90" y="253.0" class="tick-label" text-anchor="end">178</text><line x1="100" y1="332.0" x2="1150" y2="332.0" class="grid-line"/><text x="90" y="337.0" class="tick-label" text-anchor="end">119</text><line x1="100" y1="416.0" x2="1150" y2="416.0" class="grid-line"/><text x="90" y="421.0" class="tick-label" text-anchor="end">59</text><line x1="100" y1="500.0" x2="1150" y2="500.0" class="grid-line"/><text x="90" y="505.0" class="tick-label" text-anchor="end">0</text><text x="20" y="290" class="axis-label" text-anchor="middle" transform="rotate(-90 20 290)">Latency (ns/op)</text><text x="275" y="520" class="axis-label" text-anchor="end" transform="rotate(-45 275 520)">ReadOnly</text><text x="450" y="520" class="axis-label" text-anchor="end" transform="rotate(-45 450 520)">ReadHeavy</text><text x="625" y="520" class="axis-label" text-anchor="end" transform="rotate(-45 625 520)">Balanced</text><text x="800" y="520" class="axis-label" text-anchor="end" transform="rotate(-45 800 520)">WriteHeavy</text><text x="975" y="520" class="axis-label" text-anchor="end" transform="rotate(-45 975 520)">Set_Parallel</text><polyline points="275.0,457.3 450.0,452.0 625.0,408.3 800.0,426.7 975.0,436.3" fill="none" stroke="#27ae60" stroke-width="3" stroke-linecap="round" stroke-linejoin="round"/><circle cx="275" cy="457.3" r="5" fill="#27ae60" stroke="white" stroke-width="2"/><text x="275" y="457.3" class="tick-label" text-anchor="middle" dy="-10">30</text><circle cx="450" cy="452.0" r="5" fill="#27ae60" stroke="white" stroke-width="2"/><text x="450" y="452.0" class="tick-label" text-anchor="middle" dy="-10">34</text><circle cx="625" cy="408.3" r="5" fill="#27ae60" stroke="white" stroke-width="2"/><text x="625" y="408.3" class="tick-label" text-anchor="middle" dy="-10">65</text><circle cx="800" cy="426.7" r="5" fill="#27ae60" stroke="white" stroke-width="2"/><text x="800" y="426.7" class="tick-label" text-anchor="middle" dy="-10">52</text><circle cx="975" cy="436.3" r="5" fill="#27ae60" stroke="white" stroke-width="2"/><text x="975" y="436.3" class="tick-label" text-anchor="middle" dy="-10">45</text><polyline points="275.0,459.8 450.0,428.0 625.0,170.9 800.0,156.8 975.0,118.2" fill="none" stroke="#3498db" stroke-width="3" stroke-linecap="round" stroke-linejoin="round"/><circle cx="275" cy="459.8" r="5" fill="#3498db" stroke="white" stroke-width="2"/><text x="275" y="459.8" class="tick-label" text-anchor="middle" dy="-10">28</text><circle cx="450" cy="428.0" r="5" fill="#3498db" stroke="white" stroke-width="2"/><text x="450" y="428.0" class="tick-label" text-anchor="middle" dy="-10">51</text><circle cx="625" cy="170.9" r="5" fill="#3498db" stroke="white" stroke-width="2"/><text x="625" y="170.9" class="tick-label" text-anchor="middle" dy="-10">232</text><circle cx="800" cy="156.8" r="5" fill="#3498db" stroke="white" stroke-width="2"/><text x="800" y="156.8" class="tick-label" text-anchor="middle" dy="-10">242</text><circle cx="975" cy="118.2" r="5" fill="#3498db" stroke="white" stroke-width="2"/><text x="975" y="118.2" class="tick-label" text-anchor="middle" dy="-10">270</text><polyline points="275.0,448.5 450.0,328.9 625.0,331.6 800.0,298.6 975.0,333.7" fill="none" stroke="#e74c3c" stroke-width="3" stroke-linecap="round" stroke-linejoin="round"/><circle cx="275" cy="448.5" r="5" fill="#e74c3c" stroke="white" stroke-width="2"/><text x="275" y="448.5" class="tick-label" text-anchor="middle" dy="-10">36</text><circle cx="450" cy="328.9" r="5" fill="#e74c3c" stroke="white" stroke-width="2"/><text x="450" y="328.9" class="tick-label" text-anchor="middle" dy="-10">121</text><circle cx="625" cy="331.6" r="5" fill="#e74c3c" stroke="white" stroke-width="2"/><text x="625" y="331.6" class="tick-label" text-anchor="middle" dy="-10">119</text><circle cx="800" cy="298.6" r="5" fill="#e74c3c" stroke="white" stroke-width="2"/><text x="800" y="298.6" class="tick-label" text-anchor="middle" dy="-10">142</text><circle cx="975" cy="333.7" r="5" fill="#e74c3c" stroke="white" stroke-width="2"/><text x="975" y="333.7" class="tick-label" text-anchor="middle" dy="-10">117</text><rect x="1000" y="100" width="140" height="90" fill="white" stroke="#bdc3c7" stroke-width="1" rx="5"/><rect x="1010" y="118" width="20" height="4" fill="#27ae60"/><text x="1040" y="125" class="legend">Balios</text><rect x="1010" y="143" width="20" height="4" fill="#3498db"/><text x="1040" y="150" class="legend">Otter</text><rect x="1010" y="168" width="20" height="4" fill="#e74c3c"/><text x="1040" y="175" class="legend">Ristretto</text></svg>
